<svg width="20" height="18" viewBox="0 0 20 18" fill="none" xmlns="http://www.w3.org/2000/svg">
<path fill-rule="evenodd" clip-rule="evenodd" d="M3.75 16.5077C4.9507 16.5077 5.93173 15.5817 5.99659 14.4154C5.99885 14.3746 6 14.3336 6 14.2923C6 14.1665 5.98935 14.0432 5.96889 13.9231C5.8872 13.4436 5.64911 13.0164 5.30803 12.694C5.18678 12.5794 5.05251 12.478 4.90762 12.3922C4.56941 12.1921 4.17336 12.0769 3.75 12.0769C2.50736 12.0769 1.5 13.0688 1.5 14.2923C1.5 15.5158 2.50736 16.5077 3.75 16.5077ZM3.75 17C5.26878 17 6.5 15.7877 6.5 14.2923C6.5 12.7969 5.26878 11.5846 3.75 11.5846C2.23122 11.5846 1 12.7969 1 14.2923C1 15.7877 2.23122 17 3.75 17Z" fill="black"/>
<path fill-rule="evenodd" clip-rule="evenodd" d="M16.25 16.5077C17.4926 16.5077 18.5 15.5158 18.5 14.2923C18.5 13.0688 17.4926 12.0769 16.25 12.0769C15.8266 12.0769 15.4306 12.1921 15.0924 12.3922C14.9475 12.478 14.8132 12.5794 14.692 12.694C14.3509 13.0164 14.1128 13.4436 14.0311 13.9231C14.0106 14.0432 14 14.1665 14 14.2923C14 14.3336 14.0011 14.3746 14.0034 14.4154C14.0683 15.5817 15.0493 16.5077 16.25 16.5077ZM16.25 17C17.7688 17 19 15.7877 19 14.2923C19 12.7969 17.7688 11.5846 16.25 11.5846C14.7312 11.5846 13.5 12.7969 13.5 14.2923C13.5 15.7877 14.7312 17 16.25 17Z" fill="black"/>
<path fill-rule="evenodd" clip-rule="evenodd" d="M10 5.92308C10.2312 5.92308 10.4542 5.88875 10.6642 5.82498C10.8264 5.77568 10.9809 5.7088 11.1252 5.62659C11.7976 5.24352 12.25 4.52762 12.25 3.70769C12.25 2.48417 11.2426 1.49231 10 1.49231C8.75736 1.49231 7.75 2.48417 7.75 3.70769C7.75 4.52762 8.20239 5.24351 8.87481 5.62659C9.01912 5.7088 9.17356 5.77568 9.33583 5.82498C9.54576 5.88875 9.76881 5.92308 10 5.92308ZM10 6.41538C11.5188 6.41538 12.75 5.20311 12.75 3.70769C12.75 2.21228 11.5188 1 10 1C8.48122 1 7.25 2.21228 7.25 3.70769C7.25 5.20311 8.48122 6.41538 10 6.41538Z" fill="black"/>
<path fill-rule="evenodd" clip-rule="evenodd" d="M4.90762 12.3922L8.87481 5.62659C9.01912 5.7088 9.17356 5.77568 9.33583 5.82498L5.30803 12.694C5.18678 12.5794 5.05251 12.478 4.90762 12.3922ZM10.6642 5.82498C10.8264 5.77568 10.9809 5.7088 11.1252 5.62659L15.0924 12.3922C14.9475 12.478 14.8132 12.5794 14.692 12.694L10.6642 5.82498ZM14.0311 13.9231H5.96889C5.98935 14.0432 6 14.1665 6 14.2923C6 14.3336 5.99885 14.3746 5.99659 14.4154H14.0034C14.0011 14.3746 14 14.3336 14 14.2923C14 14.1665 14.0106 14.0432 14.0311 13.9231Z" fill="black"/>
<path d="M4.90762 12.3922C5.05251 12.478 5.18678 12.5794 5.30803 12.694M4.90762 12.3922C4.56941 12.1921 4.17336 12.0769 3.75 12.0769C2.50736 12.0769 1.5 13.0688 1.5 14.2923C1.5 15.5158 2.50736 16.5077 3.75 16.5077C4.9507 16.5077 5.93173 15.5817 5.99659 14.4154M4.90762 12.3922L8.87481 5.62659M5.99659 14.4154C5.99885 14.3746 6 14.3336 6 14.2923C6 14.1665 5.98935 14.0432 5.96889 13.9231M5.99659 14.4154H14.0034M5.96889 13.9231C5.8872 13.4436 5.64911 13.0164 5.30803 12.694M5.96889 13.9231H14.0311M5.30803 12.694L9.33583 5.82498M8.87481 5.62659C9.01912 5.7088 9.17356 5.77568 9.33583 5.82498M8.87481 5.62659C8.20239 5.24351 7.75 4.52762 7.75 3.70769C7.75 2.48417 8.75736 1.49231 10 1.49231C11.2426 1.49231 12.25 2.48417 12.25 3.70769C12.25 4.52762 11.7976 5.24352 11.1252 5.62659M9.33583 5.82498C9.54576 5.88875 9.76881 5.92308 10 5.92308C10.2312 5.92308 10.4542 5.88875 10.6642 5.82498M11.1252 5.62659C10.9809 5.7088 10.8264 5.77568 10.6642 5.82498M11.1252 5.62659L15.0924 12.3922M10.6642 5.82498L14.692 12.694M15.0924 12.3922C14.9475 12.478 14.8132 12.5794 14.692 12.694M15.0924 12.3922C15.4306 12.1921 15.8266 12.0769 16.25 12.0769C17.4926 12.0769 18.5 13.0688 18.5 14.2923C18.5 15.5158 17.4926 16.5077 16.25 16.5077C15.0493 16.5077 14.0683 15.5817 14.0034 14.4154M14.692 12.694C14.3509 13.0164 14.1128 13.4436 14.0311 13.9231M14.0311 13.9231C14.0106 14.0432 14 14.1665 14 14.2923C14 14.3336 14.0011 14.3746 14.0034 14.4154M6.5 14.2923C6.5 15.7877 5.26878 17 3.75 17C2.23122 17 1 15.7877 1 14.2923C1 12.7969 2.23122 11.5846 3.75 11.5846C5.26878 11.5846 6.5 12.7969 6.5 14.2923ZM19 14.2923C19 15.7877 17.7688 17 16.25 17C14.7312 17 13.5 15.7877 13.5 14.2923C13.5 12.7969 14.7312 11.5846 16.25 11.5846C17.7688 11.5846 19 12.7969 19 14.2923ZM12.75 3.70769C12.75 5.20311 11.5188 6.41538 10 6.41538C8.48122 6.41538 7.25 5.20311 7.25 3.70769C7.25 2.21228 8.48122 1 10 1C11.5188 1 12.75 2.21228 12.75 3.70769Z" stroke="black" stroke-width="1.5" stroke-linejoin="round"/>
</svg>
