<svg width="18" height="18" viewBox="0 0 18 18" fill="none" xmlns="http://www.w3.org/2000/svg">
<path fill-rule="evenodd" clip-rule="evenodd" d="M9 17C4.58171 17 1 13.4183 1 9C1 4.58171 4.58171 1 9 1C13.4183 1 17 4.58171 17 9C17 13.4183 13.4183 17 9 17ZM11.6522 9.66657H6.34766C6.49498 13.0694 7.75111 15.6666 8.99989 15.6666C10.2487 15.6666 11.5048 13.0694 11.6521 9.66657H11.6522ZM6.34766 8.33331H11.6522C11.5049 4.93046 10.2488 2.33331 9 2.33331C7.75123 2.33331 6.49509 4.93051 6.34777 8.33331H6.34766ZM5.01271 9.66657H2.36617C2.61059 12.129 4.19486 14.1971 6.3796 15.132C5.59389 13.7927 5.09711 11.8454 5.01263 9.66657H5.01271ZM2.36617 8.33331H5.01271C5.0972 6.1544 5.59397 4.20731 6.37969 2.86789C4.19486 3.80271 2.61054 5.87103 2.36626 8.33331H2.36617ZM15.6336 9.66657H12.9871C12.9026 11.8455 12.4058 13.7926 11.6201 15.132C13.8049 14.1972 15.3892 12.1289 15.6335 9.66657H15.6336ZM12.9871 8.33331H15.6336C15.3892 5.87091 13.8049 3.80274 11.6202 2.86789C12.4059 4.20717 12.9027 6.15446 12.9871 8.33331H12.9871Z" fill="black" stroke="black" stroke-width="0.5"/>
</svg>
